<mxfile host="app.diagrams.net" modified="2024-04-25T02:38:57.236Z" agent="Mozilla/5.0 (Windows NT 10.0; Win64; x64) AppleWebKit/537.36 (KHTML, like Gecko) Chrome/116.0.0.0 Safari/537.36" etag="Mjb5ZSlHjMNIwL297yDW" version="24.3.0" type="device">
  <diagram name="Page-1" id="c7G7Z2vlWiM-S9roIb6i">
    <mxGraphModel dx="2390" dy="1317" grid="1" gridSize="10" guides="1" tooltips="1" connect="1" arrows="1" fold="1" page="1" pageScale="1" pageWidth="850" pageHeight="1100" math="0" shadow="0">
      <root>
        <mxCell id="0" />
        <mxCell id="1" parent="0" />
        <mxCell id="-nvW7yNMdhPCGP3Gs8oW-1" value="&lt;font style=&quot;font-size: 20px;&quot;&gt;&lt;b style=&quot;font-size: 20px;&quot;&gt;Sequence Diagram for view patient information&lt;/b&gt;&lt;/font&gt;" style="text;html=1;align=center;verticalAlign=middle;whiteSpace=wrap;rounded=0;fontSize=20;" vertex="1" parent="1">
          <mxGeometry x="268" y="20" width="315" height="60" as="geometry" />
        </mxCell>
        <mxCell id="-nvW7yNMdhPCGP3Gs8oW-2" value="" style="shape=umlActor;verticalLabelPosition=bottom;verticalAlign=top;html=1;outlineConnect=0;" vertex="1" parent="1">
          <mxGeometry x="120" y="180" width="30" height="60" as="geometry" />
        </mxCell>
        <mxCell id="-nvW7yNMdhPCGP3Gs8oW-6" value="Medical Receptionist" style="text;html=1;align=center;verticalAlign=middle;whiteSpace=wrap;rounded=0;fontSize=14;" vertex="1" parent="1">
          <mxGeometry x="90" y="140" width="90" height="30" as="geometry" />
        </mxCell>
        <mxCell id="-nvW7yNMdhPCGP3Gs8oW-7" value="P: PatientInfo" style="rounded=0;whiteSpace=wrap;html=1;fontSize=15;" vertex="1" parent="1">
          <mxGeometry x="235" y="175" width="140" height="40" as="geometry" />
        </mxCell>
        <mxCell id="-nvW7yNMdhPCGP3Gs8oW-8" value="D: Mentcare - DB" style="rounded=0;whiteSpace=wrap;html=1;fontSize=15;" vertex="1" parent="1">
          <mxGeometry x="415" y="175" width="140" height="40" as="geometry" />
        </mxCell>
        <mxCell id="-nvW7yNMdhPCGP3Gs8oW-9" value="AS: Authorization" style="rounded=0;whiteSpace=wrap;html=1;fontSize=15;" vertex="1" parent="1">
          <mxGeometry x="590" y="175" width="150" height="40" as="geometry" />
        </mxCell>
        <mxCell id="-nvW7yNMdhPCGP3Gs8oW-11" value="" style="rounded=0;whiteSpace=wrap;html=1;" vertex="1" parent="1">
          <mxGeometry x="130" y="260" width="10" height="580" as="geometry" />
        </mxCell>
        <mxCell id="-nvW7yNMdhPCGP3Gs8oW-12" value="" style="rounded=0;whiteSpace=wrap;html=1;" vertex="1" parent="1">
          <mxGeometry x="300" y="260" width="10" height="460" as="geometry" />
        </mxCell>
        <mxCell id="-nvW7yNMdhPCGP3Gs8oW-13" value="" style="rounded=0;whiteSpace=wrap;html=1;" vertex="1" parent="1">
          <mxGeometry x="480" y="260" width="10" height="340" as="geometry" />
        </mxCell>
        <mxCell id="-nvW7yNMdhPCGP3Gs8oW-14" value="" style="rounded=0;whiteSpace=wrap;html=1;" vertex="1" parent="1">
          <mxGeometry x="660" y="260" width="10" height="220" as="geometry" />
        </mxCell>
        <mxCell id="-nvW7yNMdhPCGP3Gs8oW-17" value="" style="endArrow=classic;html=1;rounded=0;entryX=0;entryY=0.057;entryDx=0;entryDy=0;entryPerimeter=0;exitX=1.061;exitY=0.032;exitDx=0;exitDy=0;exitPerimeter=0;" edge="1" parent="1">
          <mxGeometry width="50" height="50" relative="1" as="geometry">
            <mxPoint x="490" y="360" as="sourcePoint" />
            <mxPoint x="660" y="360" as="targetPoint" />
          </mxGeometry>
        </mxCell>
        <mxCell id="-nvW7yNMdhPCGP3Gs8oW-18" value="ViewInfo (PID)" style="text;html=1;align=center;verticalAlign=middle;whiteSpace=wrap;rounded=0;" vertex="1" parent="1">
          <mxGeometry x="180" y="270" width="80" height="30" as="geometry" />
        </mxCell>
        <mxCell id="-nvW7yNMdhPCGP3Gs8oW-20" value="report (info, PID, UID)" style="text;html=1;align=center;verticalAlign=middle;whiteSpace=wrap;rounded=0;" vertex="1" parent="1">
          <mxGeometry x="330" y="300" width="120" height="30" as="geometry" />
        </mxCell>
        <mxCell id="-nvW7yNMdhPCGP3Gs8oW-21" value="authorize (info, UID)" style="text;html=1;align=center;verticalAlign=middle;whiteSpace=wrap;rounded=0;" vertex="1" parent="1">
          <mxGeometry x="510" y="330" width="120" height="30" as="geometry" />
        </mxCell>
        <mxCell id="-nvW7yNMdhPCGP3Gs8oW-22" value="" style="endArrow=classic;html=1;rounded=0;entryX=0;entryY=0.057;entryDx=0;entryDy=0;entryPerimeter=0;exitX=1.061;exitY=0.032;exitDx=0;exitDy=0;exitPerimeter=0;" edge="1" parent="1">
          <mxGeometry width="50" height="50" relative="1" as="geometry">
            <mxPoint x="310" y="330" as="sourcePoint" />
            <mxPoint x="480" y="330" as="targetPoint" />
          </mxGeometry>
        </mxCell>
        <mxCell id="-nvW7yNMdhPCGP3Gs8oW-23" value="" style="endArrow=classic;html=1;rounded=0;exitX=1.052;exitY=0.069;exitDx=0;exitDy=0;exitPerimeter=0;entryX=-0.031;entryY=0.087;entryDx=0;entryDy=0;entryPerimeter=0;" edge="1" parent="1" source="-nvW7yNMdhPCGP3Gs8oW-11" target="-nvW7yNMdhPCGP3Gs8oW-12">
          <mxGeometry width="50" height="50" relative="1" as="geometry">
            <mxPoint x="250" y="340" as="sourcePoint" />
            <mxPoint x="300" y="290" as="targetPoint" />
          </mxGeometry>
        </mxCell>
        <mxCell id="-nvW7yNMdhPCGP3Gs8oW-24" value="" style="endArrow=none;dashed=1;html=1;rounded=0;exitX=0.5;exitY=1;exitDx=0;exitDy=0;" edge="1" parent="1" source="-nvW7yNMdhPCGP3Gs8oW-12">
          <mxGeometry width="50" height="50" relative="1" as="geometry">
            <mxPoint x="510" y="770" as="sourcePoint" />
            <mxPoint x="305" y="960" as="targetPoint" />
          </mxGeometry>
        </mxCell>
        <mxCell id="-nvW7yNMdhPCGP3Gs8oW-25" value="" style="endArrow=none;dashed=1;html=1;rounded=0;exitX=0.5;exitY=1;exitDx=0;exitDy=0;" edge="1" parent="1" source="-nvW7yNMdhPCGP3Gs8oW-11">
          <mxGeometry width="50" height="50" relative="1" as="geometry">
            <mxPoint x="420" y="850" as="sourcePoint" />
            <mxPoint x="135" y="960" as="targetPoint" />
          </mxGeometry>
        </mxCell>
        <mxCell id="-nvW7yNMdhPCGP3Gs8oW-26" value="" style="endArrow=none;dashed=1;html=1;rounded=0;exitX=0.5;exitY=1;exitDx=0;exitDy=0;" edge="1" parent="1" source="-nvW7yNMdhPCGP3Gs8oW-13">
          <mxGeometry width="50" height="50" relative="1" as="geometry">
            <mxPoint x="510" y="770" as="sourcePoint" />
            <mxPoint x="485" y="960" as="targetPoint" />
          </mxGeometry>
        </mxCell>
        <mxCell id="-nvW7yNMdhPCGP3Gs8oW-27" value="" style="endArrow=none;dashed=1;html=1;rounded=0;exitX=0.5;exitY=1;exitDx=0;exitDy=0;" edge="1" parent="1" source="-nvW7yNMdhPCGP3Gs8oW-14">
          <mxGeometry width="50" height="50" relative="1" as="geometry">
            <mxPoint x="670" y="740" as="sourcePoint" />
            <mxPoint x="665" y="960" as="targetPoint" />
          </mxGeometry>
        </mxCell>
        <mxCell id="-nvW7yNMdhPCGP3Gs8oW-28" value="alt" style="shape=umlFrame;whiteSpace=wrap;html=1;pointerEvents=0;" vertex="1" parent="1">
          <mxGeometry x="60" y="500" width="700" height="430" as="geometry" />
        </mxCell>
        <mxCell id="-nvW7yNMdhPCGP3Gs8oW-29" value="" style="endArrow=classic;html=1;rounded=0;entryX=0;entryY=0.057;entryDx=0;entryDy=0;entryPerimeter=0;exitX=1.061;exitY=0.032;exitDx=0;exitDy=0;exitPerimeter=0;dashed=1;" edge="1" parent="1">
          <mxGeometry width="50" height="50" relative="1" as="geometry">
            <mxPoint x="660" y="429.67" as="sourcePoint" />
            <mxPoint x="490" y="429.67" as="targetPoint" />
          </mxGeometry>
        </mxCell>
        <mxCell id="-nvW7yNMdhPCGP3Gs8oW-30" value="authorization" style="text;html=1;align=center;verticalAlign=middle;whiteSpace=wrap;rounded=0;" vertex="1" parent="1">
          <mxGeometry x="510" y="400" width="120" height="30" as="geometry" />
        </mxCell>
        <mxCell id="-nvW7yNMdhPCGP3Gs8oW-31" value="" style="endArrow=classic;html=1;rounded=0;entryX=0;entryY=0.057;entryDx=0;entryDy=0;entryPerimeter=0;exitX=1.061;exitY=0.032;exitDx=0;exitDy=0;exitPerimeter=0;dashed=1;" edge="1" parent="1">
          <mxGeometry width="50" height="50" relative="1" as="geometry">
            <mxPoint x="480" y="549.6700000000001" as="sourcePoint" />
            <mxPoint x="310" y="549.6700000000001" as="targetPoint" />
          </mxGeometry>
        </mxCell>
        <mxCell id="-nvW7yNMdhPCGP3Gs8oW-32" value="Patient info" style="text;html=1;align=center;verticalAlign=middle;whiteSpace=wrap;rounded=0;" vertex="1" parent="1">
          <mxGeometry x="330" y="520" width="120" height="30" as="geometry" />
        </mxCell>
        <mxCell id="-nvW7yNMdhPCGP3Gs8oW-33" value="" style="endArrow=classic;html=1;rounded=0;entryX=0;entryY=0.057;entryDx=0;entryDy=0;entryPerimeter=0;exitX=1.061;exitY=0.032;exitDx=0;exitDy=0;exitPerimeter=0;dashed=1;" edge="1" parent="1">
          <mxGeometry width="50" height="50" relative="1" as="geometry">
            <mxPoint x="480" y="819.6700000000001" as="sourcePoint" />
            <mxPoint x="310" y="819.6700000000001" as="targetPoint" />
          </mxGeometry>
        </mxCell>
        <mxCell id="-nvW7yNMdhPCGP3Gs8oW-34" value="Error (no access)" style="text;html=1;align=center;verticalAlign=middle;whiteSpace=wrap;rounded=0;" vertex="1" parent="1">
          <mxGeometry x="330" y="790" width="120" height="30" as="geometry" />
        </mxCell>
        <mxCell id="-nvW7yNMdhPCGP3Gs8oW-35" value="[authorization ok]" style="text;html=1;align=center;verticalAlign=middle;whiteSpace=wrap;rounded=0;" vertex="1" parent="1">
          <mxGeometry x="140" y="535" width="110" height="30" as="geometry" />
        </mxCell>
        <mxCell id="-nvW7yNMdhPCGP3Gs8oW-36" value="[authorization fail]" style="text;html=1;align=center;verticalAlign=middle;whiteSpace=wrap;rounded=0;" vertex="1" parent="1">
          <mxGeometry x="140" y="800" width="110" height="30" as="geometry" />
        </mxCell>
      </root>
    </mxGraphModel>
  </diagram>
</mxfile>
